<svg width="30" height="30" viewBox="0 0 30 30" fill="none" xmlns="http://www.w3.org/2000/svg">
<path d="M2.87515e-07 12.907C2.87515e-07 13.485 0.468544 13.9535 1.04651 13.9535C1.62448 13.9535 2.09302 13.485 2.09302 12.907H2.87515e-07ZM2.54443 20.0601C2.32326 19.5261 1.71107 19.2726 1.1771 19.4938C0.643131 19.7149 0.389554 20.3271 0.610731 20.8611L2.54443 20.0601ZM17.4169 28.6322L18.1733 27.3543L16.372 26.2882L15.6156 27.5662L17.4169 28.6322ZM11.8267 27.3543L12.5831 28.6322L14.3842 27.5662L13.6278 26.2882L11.8267 27.3543ZM15.6156 27.5662C15.3467 28.0205 14.6533 28.0205 14.3842 27.5662L12.5831 28.6322C13.6626 30.4559 16.3374 30.4559 17.4169 28.6322L15.6156 27.5662ZM12.907 2.09303H17.093V2.87515e-07H12.907V2.09303ZM27.907 12.907V14.3024H30V12.907H27.907ZM9.14302 23.7093C7.39125 23.679 6.47334 23.5676 5.75385 23.2696L4.95289 25.2033C6.0761 25.6685 7.35541 25.7717 9.10697 25.8019L9.14302 23.7093ZM0.610731 20.8611C1.42504 22.827 2.98697 24.3889 4.95289 25.2033L5.75385 23.2696C4.30077 22.6676 3.14632 21.5133 2.54443 20.0601L0.610731 20.8611ZM27.907 14.3024C27.907 15.942 27.9064 17.1194 27.8431 18.0485C27.7803 18.9681 27.6594 19.5679 27.4556 20.0601L29.3893 20.8611C29.7165 20.0713 29.8612 19.2172 29.9312 18.1909C30.0006 17.1741 30 15.9134 30 14.3024H27.907ZM20.893 25.8019C22.6446 25.7717 23.924 25.6685 25.0471 25.2033L24.2461 23.2696C23.5267 23.5676 22.6087 23.679 20.857 23.7093L20.893 25.8019ZM27.4556 20.0601C26.8536 21.5133 25.6993 22.6676 24.2461 23.2696L25.0471 25.2033C27.013 24.3889 28.5749 22.827 29.3893 20.8611L27.4556 20.0601ZM17.093 2.09303C19.397 2.09303 21.0516 2.09413 22.3422 2.21684C23.6173 2.33807 24.4285 2.57056 25.0753 2.96691L26.1689 1.18231C25.1379 0.550564 23.9685 0.26901 22.5403 0.133214C21.1277 -0.0011021 19.3566 2.87515e-07 17.093 2.87515e-07V2.09303ZM30 12.907C30 10.6435 30.0011 8.87235 29.8667 7.45971C29.731 6.03149 29.4494 4.86204 28.8177 3.83112L27.0331 4.92473C27.4295 5.57152 27.662 6.38282 27.7832 7.65782C27.9059 8.94839 27.907 10.6029 27.907 12.907H30ZM25.0753 2.96691C25.8733 3.4559 26.5441 4.12678 27.0331 4.92473L28.8177 3.83112C28.1562 2.75155 27.2485 1.84387 26.1689 1.18231L25.0753 2.96691ZM12.907 2.87515e-07C10.6435 2.87515e-07 8.87233 -0.0011021 7.45969 0.133214C6.03148 0.26901 4.86202 0.550564 3.83111 1.18231L4.92472 2.96691C5.5715 2.57056 6.3828 2.33807 7.6578 2.21684C8.94837 2.09413 10.6029 2.09303 12.907 2.09303V2.87515e-07ZM2.09302 12.907C2.09302 10.6029 2.09413 8.94839 2.21683 7.65782C2.33806 6.38282 2.57055 5.57152 2.9669 4.92473L1.18231 3.83112C0.550563 4.86204 0.26901 6.03149 0.133214 7.45971C-0.0011021 8.87235 2.87515e-07 10.6435 2.87515e-07 12.907H2.09302ZM3.83111 1.18231C2.75154 1.84387 1.84387 2.75155 1.18231 3.83112L2.9669 4.92473C3.45589 4.12678 4.12677 3.4559 4.92472 2.96691L3.83111 1.18231ZM13.6278 26.2882C13.3446 25.8095 13.0959 25.3872 12.8541 25.0554C12.5993 24.706 12.3073 24.3913 11.9021 24.1556L10.8498 25.965C10.916 26.0034 11.0061 26.0735 11.1626 26.2882C11.3319 26.5206 11.5233 26.8417 11.8267 27.3543L13.6278 26.2882ZM9.10697 25.8019C9.71965 25.8125 10.1077 25.8203 10.4036 25.8529C10.68 25.8836 10.7871 25.9284 10.8498 25.965L11.9021 24.1556C11.4936 23.918 11.0685 23.8208 10.6339 23.7726C10.2187 23.7267 9.71686 23.7192 9.14302 23.7093L9.10697 25.8019ZM18.1733 27.3543C18.4767 26.8417 18.668 26.5206 18.8374 26.2882C18.9938 26.0735 19.0839 26.0034 19.15 25.965L18.0978 24.1556C17.6927 24.3913 17.4006 24.706 17.1459 25.0554C16.9041 25.3872 16.6554 25.8095 16.372 26.2882L18.1733 27.3543ZM20.857 23.7093C20.2831 23.7192 19.7813 23.7267 19.366 23.7726C18.9314 23.8208 18.5064 23.918 18.0978 24.1556L19.15 25.965C19.2128 25.9284 19.32 25.8836 19.5964 25.8529C19.8922 25.8203 20.2803 25.8125 20.893 25.8019L20.857 23.7093Z" fill="#2791CE"/>
</svg>
