<svg width="44" height="30" viewBox="0 0 44 30" fill="none" xmlns="http://www.w3.org/2000/svg">
<path fill-rule="evenodd" clip-rule="evenodd" d="M18.4414 8.00195C18.6899 8.01424 18.9307 8.0948 19.1377 8.23535L27.3877 13.835C27.576 13.9628 27.7301 14.1367 27.8369 14.3398C27.9436 14.543 28 14.7696 28 15C28 15.2304 27.9437 15.457 27.8369 15.6602C27.7301 15.8633 27.576 16.0372 27.3877 16.165L19.1377 21.7646C18.9307 21.9052 18.69 21.9857 18.4414 21.998C18.1927 22.0104 17.9451 21.9536 17.7256 21.834C17.5064 21.7144 17.3231 21.5366 17.1953 21.3193C17.0675 21.1019 16.9999 20.8531 17 20.5996V9.40039C17 9.14699 17.0674 8.89806 17.1953 8.68066C17.3232 8.46324 17.5071 8.28558 17.7266 8.16602C17.946 8.04649 18.1929 7.98971 18.4414 8.00195ZM19 19L26 15L19 11V19Z" fill="#C4006C"/>
<path fill-rule="evenodd" clip-rule="evenodd" d="M41 0C42.6569 0 44 1.34315 44 3V27C44 28.6569 42.6569 30 41 30H3L2.8457 29.9961C1.26055 29.9158 0 28.6051 0 27V3C3.8656e-07 1.34315 1.34315 0 3 0H41ZM3 2C2.44772 2 2 2.44772 2 3V27C2 27.5523 2.44772 28 3 28H41C41.5523 28 42 27.5523 42 27V3C42 2.44772 41.5523 2 41 2H3Z" fill="#C4006C"/>
</svg>
