<svg width="60" height="63" viewBox="0 0 60 63" fill="none" xmlns="http://www.w3.org/2000/svg">
<path d="M3.54997 26.3433C4.19949 25.3156 5.56401 25.006 6.59777 25.6517C8.57664 26.8877 9.92137 29.0433 9.92137 31.4997L9.92042 31.6146C9.87918 34.0234 8.54583 36.1312 6.59785 37.348L6.59768 37.3481C5.70607 37.9049 5.37036 38.2098 5.18272 38.4528C4.58769 39.2239 4.32524 40.1979 4.45278 41.161L4.4596 41.2077C4.49793 41.4473 4.60196 41.7839 4.89525 42.3791C5.21685 43.0318 5.68678 43.8435 6.38854 45.052C7.09034 46.2603 7.56245 47.0707 7.97025 47.674C8.36686 48.2607 8.61488 48.515 8.81019 48.664C9.58539 49.2554 10.5652 49.5164 11.5342 49.3896C11.8396 49.3496 12.2728 49.2131 13.204 48.7239C15.2704 47.6382 17.8209 47.5584 19.961 48.7869C22.1008 50.0153 23.3063 52.2507 23.3937 54.5725L23.4017 54.7617C23.4453 55.6736 23.5382 56.0782 23.6488 56.3435L23.6849 56.4272C24.0677 57.2851 24.7681 57.9656 25.6423 58.3258C25.8699 58.4195 26.2157 58.5059 26.9251 58.554C27.6545 58.6035 28.5966 58.6047 30.0002 58.6047C31.4038 58.6047 32.3458 58.6035 33.0752 58.554C33.7847 58.5059 34.1303 58.4195 34.358 58.3258C35.2604 57.954 35.9777 57.2408 36.3517 56.3436C36.4696 56.0601 36.5674 55.6182 36.6067 54.5728C36.6939 52.2506 37.8995 50.0152 40.0396 48.7868C42.1793 47.5588 44.7293 47.6385 46.7955 48.724C47.7275 49.2135 48.1608 49.35 48.4662 49.39H48.4664C49.4348 49.5168 50.4147 49.2558 51.19 48.6644L51.1902 48.6641C51.3853 48.5154 51.6332 48.2612 52.03 47.6743C52.4379 47.071 52.91 46.2606 53.6119 45.0521C54.2341 43.9805 54.6761 43.2184 54.9968 42.5941C55.5521 41.5132 56.8836 41.0844 57.9709 41.6364C59.0582 42.1884 59.4895 43.5122 58.9343 44.5931C58.55 45.3412 58.0411 46.2159 57.4408 47.2498L57.4406 47.2501C56.7691 48.4064 56.211 49.3696 55.6995 50.1261C55.177 50.8989 54.6164 51.5907 53.8814 52.1513L53.8815 52.1514C52.1762 53.4522 50.0205 54.027 47.8888 53.7477C46.7795 53.6025 45.7779 53.1605 44.7304 52.6104L44.73 52.6102C43.8877 52.1676 42.9593 52.1863 42.2501 52.5932L42.2502 52.5933C41.5408 53.0005 41.0604 53.7902 41.0249 54.7368V54.7372C40.9805 55.9147 40.8644 56.9977 40.4365 58.0252L40.4363 58.0258C39.6136 60 38.0356 61.5687 36.0498 62.3866L36.0493 62.3868C35.1935 62.7391 34.3107 62.8758 33.3761 62.9391C32.4613 63.0012 31.3433 63 30.0002 63C28.6571 63 27.539 63.0012 26.6243 62.9391C25.6896 62.8758 24.8069 62.7391 23.951 62.3868L23.9506 62.3866C21.9647 61.5687 20.3868 59.9998 19.5641 58.0257C19.1359 56.9978 19.0199 55.9142 18.9756 54.7368C18.94 53.7904 18.4594 53.0005 17.7501 52.5932C17.0408 52.1861 16.1124 52.1672 15.2698 52.6099C14.2224 53.1602 13.2206 53.6022 12.1111 53.7474C9.97988 54.0262 7.82429 53.4521 6.11877 52.1511L6.11869 52.151C5.38378 51.5904 4.82325 50.8987 4.30072 50.1258C3.78928 49.3692 3.23133 48.406 2.55977 47.2497L2.55969 47.2496C1.88816 46.0932 1.32811 45.1312 0.924782 44.3126C0.525583 43.5023 0.210525 42.6996 0.0812954 41.82L0.0693789 41.7347C-0.211239 39.6157 0.366425 37.473 1.67492 35.7774L1.67501 35.7773C2.3563 34.8946 3.24209 34.2531 4.24588 33.6262C5.05243 33.1223 5.5001 32.3138 5.50015 31.4997L5.49885 31.4235C5.47184 30.6357 5.02728 29.8616 4.24571 29.3734C3.21194 28.7277 2.90047 27.371 3.54997 26.3433Z" fill="#8D96AA"/>
<path fill-rule="evenodd" clip-rule="evenodd" d="M30.0001 20.5116C36.1046 20.5116 41.0532 25.4312 41.0532 31.5C41.0532 37.5687 36.1046 42.4883 30.0001 42.4883C23.8957 42.4883 18.9471 37.5687 18.9471 31.5C18.9471 25.4313 23.8957 20.5116 30.0001 20.5116ZM30.0001 24.9069C26.3375 24.907 23.3683 27.8587 23.3683 31.5C23.3683 35.1412 26.3375 38.093 30.0001 38.093C33.6628 38.093 36.632 35.1412 36.632 31.5C36.632 27.8587 33.6628 24.9069 30.0001 24.9069Z" fill="#8D96AA"/>
<path d="M30.4934 0C31.6197 0.000621674 32.5757 0.00657207 33.3761 0.0608653C34.2816 0.122285 35.1384 0.252459 35.9692 0.580924L36.0495 0.613374L36.0497 0.61346C38.0044 1.41851 39.5642 2.95103 40.3973 4.8821L40.4364 4.97438L40.4365 4.9749C40.8376 5.9382 40.9648 6.95024 41.0156 8.04348L41.0249 8.26325V8.26351C41.0593 9.18016 41.5112 9.94994 42.1841 10.3673L42.25 10.4066C42.959 10.8136 43.8874 10.8326 44.7301 10.3898L44.926 10.2879C45.9034 9.78525 46.8487 9.38855 47.8886 9.25238H47.8888C50.0201 8.97347 52.1757 9.54754 53.8812 10.8486C54.6161 11.4093 55.1766 12.101 55.6992 12.874C56.2106 13.6305 56.7686 14.5937 57.44 15.75C58.1117 16.9063 58.6718 17.8684 59.0752 18.687C59.4873 19.5234 59.8098 20.352 59.9307 21.2652C60.2111 23.3839 59.6336 25.5268 58.325 27.2223C57.6438 28.1049 56.7584 28.7465 55.7542 29.3735C54.9478 29.8774 54.4999 30.6862 54.4999 31.5003C54.5002 32.3144 54.9481 33.1229 55.7545 33.6266C56.7882 34.2724 57.0997 35.629 56.4501 36.6567C55.8005 37.6843 54.436 37.994 53.4022 37.3483C51.4234 36.1121 50.0792 33.9565 50.0787 31.5006V31.5003C50.0787 29.0438 51.4235 26.8878 53.4022 25.6517L53.4026 25.6515C54.2941 25.0948 54.6296 24.7898 54.8174 24.5466C55.4122 23.776 55.6747 22.8019 55.5472 21.8386C55.5151 21.5961 55.4177 21.2555 55.1048 20.6206C54.7832 19.9679 54.3132 19.1564 53.6113 17.948L53.6112 17.9477C52.9095 16.7393 52.4374 15.9289 52.0297 15.3257C51.633 14.7389 51.385 14.4846 51.1897 14.3356C50.4146 13.7443 49.4347 13.4833 48.4658 13.6101L48.4657 13.61C48.1603 13.6501 47.727 13.7867 46.796 14.2759C44.7296 15.3616 42.1792 15.4414 40.0392 14.2129C37.8995 12.9847 36.6939 10.7493 36.6067 8.42756L36.5987 8.23836C36.5551 7.32735 36.4622 6.92232 36.3517 6.65646C35.9777 5.75911 35.2604 5.04598 34.3578 4.67418C34.1302 4.58049 33.7846 4.49412 33.0751 4.446C32.3457 4.39652 31.4038 4.39535 30.0002 4.39535C28.5966 4.39535 27.6546 4.39652 26.9252 4.446C26.2157 4.49412 25.8701 4.58048 25.6425 4.67418C24.7399 5.04595 24.0227 5.75902 23.6488 6.65646C23.5382 6.92187 23.4453 7.32639 23.4017 8.2381L23.3937 8.4273C23.3077 10.7128 22.1382 12.9148 20.0604 14.1547L19.9607 14.213C17.8207 15.4414 15.2705 15.3614 13.2042 14.2758C12.273 13.7865 11.8396 13.65 11.534 13.61C10.5652 13.4832 9.58547 13.7442 8.81028 14.3355C8.61501 14.4845 8.36703 14.7388 7.97033 15.3256C7.56253 15.9288 7.09043 16.7393 6.38862 17.9477L6.38854 17.9476C5.76642 19.0189 5.32433 19.7817 5.00319 20.4063C4.44755 21.4871 3.11581 21.9154 2.02871 21.363C0.941594 20.8106 0.510704 19.4867 1.06631 18.4059C1.45061 17.6584 1.95911 16.7842 2.55977 15.7499C3.23132 14.5936 3.78937 13.6305 4.3008 12.8739C4.82334 12.1009 5.3838 11.4091 6.11877 10.8484C7.82427 9.54742 9.97977 8.97329 12.1111 9.2522C13.2206 9.39745 14.2223 9.83918 15.2702 10.3898C16.1126 10.8324 17.041 10.8136 17.7501 10.4066L17.7502 10.4065C18.4594 9.99947 18.9399 9.20964 18.9756 8.26299C19.0199 7.08564 19.1359 6.00225 19.5641 4.97438C20.3868 2.99997 21.9647 1.43123 23.9506 0.613374H23.9508C24.8067 0.260976 25.6895 0.124265 26.6242 0.0608653C27.4246 0.00657166 28.3807 0.000621487 29.5071 0H30.4934Z" fill="#8D96AA"/>
</svg>
