<svg width="60" height="60" viewBox="0 0 60 60" fill="none" xmlns="http://www.w3.org/2000/svg">
  <path fill-rule="evenodd" clip-rule="evenodd" d="M30 4C15.64 4 4 15.64 4 30C4 44.36 15.64 56 30 56C44.36 56 56 44.36 56 30C56 15.64 44.36 4 30 4ZM0 30C0 13.431 13.431 0 30 0C46.569 0 60 13.431 60 30C60 46.569 46.569 60 30 60C13.431 60 0 46.569 0 30Z" fill="#8D96AA"/>
  <path d="M30 14C23.925 14 19 18.925 19 25C19 26.105 19.895 27 21 27C22.105 27 23 26.105 23 25C23 21.134 26.134 18 30 18C33.866 18 37 21.134 37 25C37 27.632 35.474 29.55 33.2 30.9C31.05 32.17 29 34.1 29 37V38C29 39.105 29.895 40 31 40C32.105 40 33 39.105 33 38V37C33 35.9 34.05 34.83 35.8 33.775C38.726 32.05 41 29.068 41 25C41 18.925 36.075 14 30 14Z" fill="#8D96AA"/>
  <circle cx="30.5" cy="46.5" r="2.5" fill="#8D96AA"/>
</svg>
