<svg width="30" height="22" viewBox="0 0 30 22" fill="none" xmlns="http://www.w3.org/2000/svg">
<path d="M9.25123 4.71816C10.1276 4.71816 10.8381 5.41791 10.8381 6.28109V7.54902H12.1255C13.0019 7.54903 13.7124 8.24877 13.7124 9.11195C13.7124 9.97512 13.0019 10.6749 12.1255 10.6749H10.8381V11.9428C10.8381 12.806 10.1276 13.5057 9.25123 13.5057C8.3748 13.5057 7.66432 12.806 7.66432 11.9428V10.6749H6.37694C5.50052 10.6749 4.79003 9.97513 4.79003 9.11195C4.79003 8.24877 5.50051 7.54902 6.37694 7.54902H7.66432V6.28109C7.66432 5.4179 8.3748 4.71816 9.25123 4.71816Z" fill="#04C5A8"/>
<path d="M19.5584 10.5497C19.791 10.5045 20.0319 10.5283 20.2507 10.618C20.4694 10.7077 20.6563 10.8594 20.7875 11.0537C20.9187 11.2481 20.9885 11.4764 20.9879 11.7098C20.9871 12.0222 20.8606 12.3214 20.6361 12.542C20.4115 12.7625 20.1074 12.8864 19.7903 12.8864C19.5533 12.8864 19.3216 12.8171 19.1246 12.6874C18.9276 12.5577 18.7741 12.3733 18.6835 12.1576C18.593 11.9419 18.5695 11.7046 18.6159 11.4757C18.6624 11.2468 18.7767 11.0366 18.9445 10.8718C19.1123 10.707 19.3259 10.5948 19.5584 10.5497Z" fill="#04C5A8"/>
<path d="M17.1555 7.93242C17.8169 7.93243 18.3531 8.46052 18.3531 9.11195C18.3531 9.76337 17.8169 10.2915 17.1555 10.2915C16.4941 10.2915 15.9579 9.76338 15.9579 9.11195C15.9579 8.46052 16.4941 7.93242 17.1555 7.93242Z" fill="#04C5A8"/>
<path d="M22.425 7.93242C23.0865 7.93243 23.6227 8.46052 23.6227 9.11195C23.6227 9.76337 23.0865 10.2915 22.425 10.2915C21.7636 10.2915 21.2274 9.76338 21.2274 9.11195C21.2274 8.46052 21.7636 7.93242 22.425 7.93242Z" fill="#04C5A8"/>
<path d="M19.7903 5.33747C20.4517 5.33748 20.9879 5.86557 20.9879 6.51699C20.9879 7.16842 20.4517 7.69651 19.7903 7.69652C19.1289 7.69652 18.5927 7.16842 18.5927 6.51699C18.5927 5.86556 19.1289 5.33747 19.7903 5.33747Z" fill="#04C5A8"/>
<path fill-rule="evenodd" clip-rule="evenodd" d="M20.7484 5.19202e-05C21.4059 -0.00244943 22.0604 0.0854418 22.6931 0.261111L22.7545 0.278449L22.76 0.280037C24.5903 0.812957 25.9343 2.14159 26.9311 3.84267C27.9214 5.53249 28.6485 7.71786 29.2147 10.2388C29.7928 12.8118 30.1309 15.2304 29.9521 17.1742C29.7758 19.0908 29.0203 21.0739 26.8949 21.7889L26.8941 21.7891C25.5937 22.2258 24.3735 21.9358 23.3717 21.3622C22.441 20.8293 21.6287 20.0188 20.9345 19.178L20.8677 19.0965C20.2842 18.3805 19.7086 17.9698 18.9173 17.7048C18.0587 17.4174 16.8674 17.2749 14.9998 17.2749C13.1332 17.2749 11.9199 17.417 11.0395 17.7072C10.2241 17.976 9.63682 18.3906 9.06328 19.0956L9.06166 19.0975C8.36268 19.9538 7.54109 20.8072 6.5851 21.3612C5.57492 21.9465 4.35287 22.2256 3.03804 21.7773L3.03761 21.7771L3.03718 21.777C1.00854 21.0841 0.276126 19.0571 0.0726335 17.199C-0.141233 15.2461 0.130146 12.8151 0.716323 10.2351V10.2349C1.28838 7.7182 2.01502 5.53399 3.00302 3.84487C3.99787 2.14405 5.33923 0.813066 7.17318 0.279854L7.18409 0.276679L7.19506 0.273687C7.84341 0.0951156 8.51308 0.00314348 9.18608 0.000112972H9.25947L9.25941 0.000174024C10.3307 0.0018142 11.3166 0.32428 12.0708 0.526992C12.8794 0.74431 13.7629 0.943671 14.9998 0.943673C16.2367 0.94367 17.1195 0.744363 17.9278 0.527053C18.6822 0.324214 19.6679 0.00174938 20.7405 0.000174024C20.7431 0.000160986 20.7458 6.18766e-05 20.7484 5.19202e-05ZM9.24304 3.12592C8.84313 3.12388 8.44485 3.17628 8.05949 3.28148C7.27485 3.51364 6.49883 4.13029 5.75308 5.40524C4.99661 6.69854 4.35585 8.53187 3.81352 10.9178L3.81346 10.9177C3.26193 13.3453 3.06748 15.3965 3.22816 16.8638C3.39906 18.4242 3.88085 18.7563 4.07654 18.8234C4.31851 18.9059 4.57106 18.9015 4.97568 18.667C5.43467 18.4011 5.96849 17.898 6.58807 17.139C7.5112 16.0049 8.5939 15.2171 10.0323 14.743C11.4066 14.2901 13.0322 14.1491 14.9998 14.1491C16.9663 14.1491 18.5781 14.2897 19.9389 14.7453C21.3668 15.2235 22.427 16.016 23.3428 17.1399L23.3998 17.2092C23.9855 17.918 24.5123 18.3995 24.9669 18.6599C25.3819 18.8975 25.6384 18.9026 25.8495 18.8371L25.8699 18.8305C26.2007 18.7189 26.6554 18.3679 26.7912 16.8922C26.9245 15.4426 26.676 13.4076 26.1158 10.914V10.9139C25.5802 8.52924 24.9393 6.6971 24.1823 5.40524C23.4329 4.12649 22.6513 3.50911 21.8636 3.27867C21.5039 3.17554 21.1309 3.12408 20.7563 3.12592H20.7484C20.2138 3.12592 19.7621 3.27413 18.7636 3.5426C17.817 3.79709 16.6306 4.06954 14.9998 4.06954C13.3691 4.06954 12.1821 3.79708 11.2353 3.5426C10.236 3.27402 9.78457 3.12592 9.25123 3.12592H9.24304Z" fill="#04C5A8"/>
</svg>
