<?xml version="1.0" encoding="UTF-8"?>
<svg xmlns="http://www.w3.org/2000/svg" width="24" height="24" viewBox="0 0 24 24">
  <g fill="currentColor">
    <path d="M13.4,4c-.7,0-1.2.5-1.2,1.2v1.7c-2.7.5-4.8,2.6-5.3,5.3h-1.7c-.7,0-1.2.5-1.2,1.2s.5,1.2,1.2,1.2h1.7c.6,3.1,3.3,5.4,6.5,5.4s6.6-3,6.6-6.6-2.3-5.9-5.4-6.5v-1.7c0-.7-.5-1.2-1.2-1.2ZM7.1,6.1c-.7,0-1.2.5-1.2,1.2s.5,1.2,1.2,1.2,1.2-.5,1.2-1.2-.5-1.2-1.2-1.2ZM13.4,9.2c2.3,0,4.2,1.9,4.2,4.2s-1.9,4.2-4.2,4.2-4.2-1.9-4.2-4.2,1.9-4.2,4.2-4.2ZM13.4,10.8c-1.4,0-2.6,1.2-2.6,2.6s1.2,2.6,2.6,2.6,2.6-1.2,2.6-2.6-1.2-2.6-2.6-2.6ZM13.4,12.6c.4,0,.8.4.8.8s-.4.8-.8.8-.8-.4-.8-.8.4-.8.8-.8h0Z"/>
  </g>
</svg>
